# xmcd
#
# Track frame offsets:
#	150
#	18420
#	39288
#	59776
#	75482
#	100319
#	132254
#	147426
#	164136
#	185113
#	200405
#	218441
#	227212
#	241404
#	260793
#	283505
#
# Disc length: 4072 seconds
#
# Revision: 1
# Processed by: cddbd v1.5.2PL0 Copyright (c) Steve Scherf et al.
# Submitted via: audiograbber 1.83.01
#
DISCID=f20fe610
DTITLE=Various Artist - Moderne Ballader and vakre viser CD2
DYEAR=2002
DGENRE=Blues
TTITLE0=Bjørn Afzelius - Sång til friheten
TTITLE1=The Real Group - Ett liv för mig
TTITLE2=Bjørn Eidsvåg - Eg komme 
TTITLE3=Åsa Jinder and Cajsastina Åkerström - Av längtan till dig
TTITLE4=Kari Bremnes - Gåte ved gåte
TTITLE5=Odd Børretzen and Lars Martin Myhre - Vintersang
TTITLE6=Cornelius Vreeswijk - Balladen om Fredrik Åkare och den søta frøken Cec
TTITLE6=ilia Lind 
TTITLE7=Tomas Ledin - Blå blå känslor(1997 ver)
TTITLE8=De Lillos - Fullstendig oppslukt av frykt
TTITLE9=Lisa Ekdahl - Benen i kors
TTITLE10=To rustne herrer - Tordensky
TTITLE11=Sven Bertil Taube - Änglamark
TTITLE12=Erik Bye - Vår herres klinkekule
TTITLE13=Elisabeth Andreassen - Nocturne
TTITLE14=Lisa Nilsson - Himlen runt hörnet
TTITLE15=Sigvart Dagsland - Se så lykkelige
EXTD=
EXTT0=
EXTT1=
EXTT2=
EXTT3=
EXTT4=
EXTT5=
EXTT6=
EXTT7=
EXTT8=
EXTT9=
EXTT10=
EXTT11=
EXTT12=
EXTT13=
EXTT14=
EXTT15=
PLAYORDER=
